<?xml version="1.0" standalone="no"?>
<!DOCTYPE svg PUBLIC "-//W3C//DTD SVG 20010904//EN"
 "http://www.w3.org/TR/2001/REC-SVG-20010904/DTD/svg10.dtd">
<svg version="1.0" xmlns="http://www.w3.org/2000/svg"
 width="300.000000pt" height="300.000000pt" viewBox="0 0 300.000000 300.000000"
 preserveAspectRatio="xMidYMid meet">
<metadata>
Created by potrace 1.10, written by Peter Selinger 2001-2011
</metadata>
<g transform="translate(0.000000,300.000000) scale(0.100000,-0.100000)"
fill="#f0deef" stroke="none">
<path d="M2250 2898 c0 -7 5 -20 10 -28 8 -12 10 -9 10 13 0 15 -4 27 -10 27
-5 0 -10 -6 -10 -12z"/>
<path d="M2281 2838 c0 -31 -6 -60 -13 -64 -8 -5 -9 4 -4 34 4 25 2 42 -4 42
-5 0 -7 -7 -4 -15 4 -8 1 -15 -6 -15 -8 0 -11 9 -8 25 3 14 1 28 -5 32 -6 4
-8 -8 -5 -33 3 -21 1 -48 -4 -59 -8 -18 -8 -18 -4 3 2 13 0 20 -6 16 -6 -4 -8
-25 -4 -51 3 -24 2 -42 -2 -39 -5 3 -7 -13 -6 -35 1 -21 -2 -39 -8 -39 -6 0
-7 -13 -3 -31 5 -23 4 -30 -5 -24 -9 5 -10 1 -5 -15 5 -16 4 -20 -4 -16 -6 4
-11 4 -10 -1 1 -4 0 -11 -1 -15 -4 -13 -7 -27 -9 -39 0 -5 -5 -8 -10 -5 -5 4
-7 -3 -4 -14 3 -11 0 -20 -6 -20 -6 0 -11 -7 -11 -16 0 -9 -5 -12 -12 -8 -7 5
-8 3 -3 -5 4 -8 -1 -21 -14 -32 -12 -11 -21 -26 -21 -34 0 -7 -12 -23 -27 -35
-16 -12 -21 -19 -13 -15 8 4 4 -3 -10 -15 -14 -12 -18 -18 -10 -14 8 4 0 -9
-19 -29 -19 -20 -38 -34 -43 -31 -4 3 -8 1 -8 -4 0 -5 -9 -12 -21 -15 -13 -4
-18 -10 -13 -18 4 -8 3 -10 -5 -5 -7 4 -15 -2 -20 -16 -6 -13 -10 -19 -10 -14
-1 6 -8 1 -17 -10 -8 -10 -13 -12 -9 -4 4 8 -1 6 -10 -5 -8 -11 -22 -20 -30
-20 -9 0 -27 -13 -41 -30 -14 -16 -23 -23 -19 -15 6 13 4 13 -7 0 -17 -21 -91
-66 -101 -62 -5 1 -5 -3 -1 -9 5 -8 2 -10 -9 -6 -9 3 -18 0 -21 -9 -3 -8 -12
-14 -21 -14 -8 0 -15 -5 -15 -11 0 -5 -4 -7 -10 -4 -5 3 -10 1 -10 -5 0 -6 -4
-9 -9 -6 -5 3 -14 -1 -21 -9 -7 -8 -19 -15 -26 -15 -8 0 -14 -4 -14 -9 0 -5
-8 -8 -17 -6 -10 1 -26 -7 -36 -19 -10 -11 -15 -14 -11 -6 4 8 -4 5 -18 -8
-13 -12 -28 -19 -31 -15 -4 3 -7 1 -7 -6 0 -7 -6 -11 -14 -8 -19 8 -42 -19
-24 -27 9 -4 9 -8 2 -11 -6 -3 -9 -17 -6 -30 2 -15 0 -25 -7 -25 -7 0 -9 -5
-6 -10 4 -6 12 -7 18 -3 7 4 6 0 -2 -10 -15 -19 -8 -22 20 -6 31 16 21 -21
-11 -43 -26 -19 -38 -63 -14 -54 10 4 12 -2 7 -24 -7 -38 5 -38 71 -1 28 16
95 52 149 80 54 28 137 76 184 108 47 32 103 70 124 84 22 14 62 47 90 73 49
46 68 53 56 21 -4 -8 -6 -18 -6 -22 1 -3 -6 -10 -15 -15 -9 -5 -14 -13 -11
-17 2 -5 -2 -14 -10 -21 -8 -7 -15 -19 -15 -27 0 -8 -5 -11 -12 -7 -8 5 -9 2
-5 -9 3 -10 2 -17 -4 -17 -6 0 -8 -4 -5 -9 7 -11 -19 -33 -28 -24 -4 4 -4 -1
0 -11 5 -12 4 -17 -3 -13 -5 3 -10 1 -10 -6 0 -20 -34 -67 -44 -61 -5 3 -6 -3
-2 -12 4 -12 3 -15 -5 -10 -8 5 -12 0 -12 -13 0 -12 -4 -21 -10 -21 -5 0 -10
-7 -10 -16 0 -8 -4 -13 -9 -10 -5 4 -8 -6 -6 -20 2 -19 -4 -28 -21 -36 -13 -6
-24 -19 -24 -30 0 -10 -4 -18 -10 -18 -5 0 -16 -13 -25 -30 -9 -16 -13 -30 -9
-30 4 0 1 -7 -6 -15 -11 -13 -15 -13 -21 -3 -7 10 -9 8 -9 -5 0 -10 -6 -20
-14 -23 -8 -3 -12 -12 -9 -20 3 -8 -3 -17 -13 -21 -11 -4 -25 -15 -32 -25 -7
-10 -17 -16 -22 -13 -5 3 -18 -8 -30 -25 -12 -16 -27 -30 -34 -30 -13 0 -66
-51 -66 -64 0 -4 -12 -18 -27 -32 -54 -47 -93 -88 -93 -96 0 -4 -5 -8 -11 -8
-13 0 -60 -36 -54 -42 2 -2 -5 -10 -17 -17 -16 -10 -19 -10 -12 1 4 7 -14 -9
-41 -35 -28 -28 -54 -46 -62 -43 -8 3 -12 2 -9 -3 3 -5 -1 -12 -10 -15 -10 -4
-13 -2 -8 7 4 6 -3 2 -15 -11 -12 -12 -26 -20 -30 -17 -5 2 -14 -2 -21 -10 -7
-8 -17 -12 -23 -8 -5 3 -7 1 -4 -4 4 -6 0 -16 -8 -23 -8 -7 -15 -10 -15 -6 0
3 -9 -3 -20 -14 -12 -12 -26 -17 -36 -13 -11 4 -15 2 -11 -4 9 -14 -19 -37
-34 -27 -7 4 -9 3 -6 -3 4 -6 0 -14 -9 -17 -10 -4 -13 -2 -8 7 4 6 -4 3 -17
-9 -36 -30 -80 -56 -86 -50 -3 3 -12 -2 -20 -10 -9 -8 -21 -13 -28 -10 -8 3
-16 -2 -19 -10 -3 -9 -10 -12 -16 -9 -5 3 -10 1 -10 -5 0 -7 -7 -10 -15 -6 -8
3 -15 1 -15 -5 0 -6 -5 -7 -10 -4 -6 3 -13 -1 -16 -9 -3 -9 -10 -13 -15 -10
-5 3 -9 1 -9 -4 0 -13 -68 -45 -79 -37 -6 3 -14 -2 -19 -11 -5 -10 -23 -17
-41 -18 -17 0 -31 -5 -31 -9 0 -5 -5 -5 -10 -2 -6 3 -13 -1 -16 -9 -3 -9 -10
-13 -15 -10 -5 3 -6 -2 -3 -10 3 -9 2 -16 -4 -16 -5 0 -7 -11 -4 -25 3 -17 0
-25 -8 -23 -7 2 -15 -3 -17 -10 -3 -7 -1 -12 4 -11 20 3 27 -2 13 -11 -13 -9
-13 -11 0 -19 12 -9 12 -11 -2 -16 -9 -4 -14 -13 -12 -20 3 -8 12 -11 20 -8 8
3 14 0 14 -6 0 -6 -5 -11 -11 -11 -5 0 -7 -5 -3 -11 3 -6 0 -15 -7 -20 -12 -7
-11 -9 1 -9 22 0 43 16 36 28 -3 5 1 13 10 16 22 9 32 -3 14 -14 -13 -8 -13
-10 1 -10 9 0 31 5 48 11 24 8 36 8 43 1 8 -8 21 -6 45 9 18 11 39 19 46 16 7
-2 -3 -13 -23 -26 -27 -17 -44 -20 -76 -16 -30 4 -44 2 -54 -10 -7 -8 -16 -12
-20 -10 -12 7 -90 -25 -90 -36 0 -5 14 -2 31 6 17 9 38 14 47 12 12 -3 8 -8
-15 -17 -18 -6 -31 -16 -28 -20 3 -4 -2 -11 -11 -14 -8 -3 -12 -10 -9 -16 3
-6 -1 -13 -9 -16 -9 -3 -13 -10 -10 -15 3 -5 9 -7 14 -4 5 3 11 1 15 -5 3 -5
1 -10 -4 -10 -6 0 -11 -5 -11 -11 0 -6 7 -9 15 -5 10 3 15 -1 15 -13 0 -11 -6
-22 -12 -24 -7 -3 -2 -6 12 -7 14 -1 19 -4 13 -7 -18 -7 -16 -33 3 -33 8 0 25
5 36 11 11 6 33 13 49 16 40 6 418 198 519 264 47 30 111 71 143 90 78 45 158
111 297 244 64 61 144 136 179 169 34 32 74 77 88 100 22 34 79 111 113 153 6
7 10 14 10 17 0 6 71 118 98 155 27 37 61 94 68 113 3 10 14 20 24 23 19 6 67
92 57 102 -4 3 1 19 9 35 9 16 13 35 11 42 -3 7 4 18 14 24 10 7 18 15 17 20
-1 4 4 21 11 37 7 17 14 35 15 40 1 6 7 20 14 32 15 26 52 143 46 143 -3 0 3
14 11 31 20 38 51 156 60 232 4 31 11 57 16 57 9 0 13 -22 10 -49 -2 -7 1 -11
6 -8 4 3 9 -7 9 -21 4 -60 22 -119 94 -292 28 -69 56 -139 61 -157 10 -32 29
-54 29 -34 0 6 5 11 11 11 7 0 9 -12 5 -33 -8 -41 29 -104 58 -99 11 2 15 -1
11 -8 -3 -6 -2 -9 3 -8 5 2 21 -10 36 -25 26 -28 34 -57 16 -57 -5 0 -10 6
-10 14 0 12 -39 30 -47 22 -1 -1 11 -21 28 -44 29 -40 49 -47 49 -17 0 7 5 15
12 17 18 6 1 53 -32 84 -22 21 -26 31 -18 41 11 13 -3 19 -16 6 -15 -15 -54
-13 -60 3 -5 14 -4 15 9 4 12 -10 19 -10 27 -2 9 9 8 12 -5 12 -9 0 -17 7 -17
15 0 9 -6 12 -15 9 -16 -7 -21 11 -5 21 11 7 -8 55 -22 55 -5 0 -6 5 -3 10 4
6 1 9 -5 8 -11 -3 -44 68 -77 162 -8 25 -24 63 -34 85 -18 39 -59 175 -74 243
-8 37 -37 59 -52 39 -10 -12 -31 -95 -38 -152 -10 -74 -120 -381 -164 -455 -5
-8 -16 -41 -25 -72 -9 -32 -32 -75 -51 -98 -19 -23 -35 -46 -35 -52 0 -5 -4
-7 -9 -3 -5 3 -13 0 -17 -6 -4 -8 -3 -9 4 -5 19 11 14 -5 -11 -38 -13 -17 -26
-35 -28 -41 -4 -11 -52 -85 -115 -178 -120 -179 -115 -174 -346 -392 -148
-141 -286 -255 -331 -273 -18 -8 -45 -24 -62 -36 -90 -68 -518 -296 -555 -296
-9 0 -20 -4 -26 -9 -16 -16 -56 -17 -64 -1 -24 47 -39 91 -30 85 5 -3 10 -1
10 5 0 6 17 28 37 49 32 32 45 38 83 40 47 1 126 43 115 61 -4 6 1 7 11 3 9
-3 35 3 58 14 22 12 58 28 78 37 58 24 118 65 125 84 3 9 13 25 21 34 13 15
12 19 -2 34 -16 15 -20 15 -57 -1 -52 -24 -101 -60 -92 -69 4 -4 1 -11 -7 -16
-12 -7 -12 -12 -3 -21 10 -10 16 -9 30 3 20 18 94 50 100 44 5 -5 -76 -52
-132 -76 -46 -20 -61 -15 -24 8 40 25 12 22 -37 -4 -55 -29 -74 -44 -57 -44 7
0 15 5 18 10 3 6 14 10 23 10 15 -1 15 -3 -3 -15 -13 -10 -30 -13 -52 -9 -25
5 -39 2 -53 -11 -10 -9 -24 -14 -31 -9 -7 4 -10 3 -5 -4 3 -6 2 -13 -3 -16
-12 -8 -22 7 -13 19 10 14 88 55 105 55 8 0 22 9 31 19 10 11 29 22 44 26 20
5 23 8 11 16 -9 5 -9 9 -2 9 6 0 15 -5 18 -10 7 -11 25 -4 25 9 0 19 -41 17
-72 -3 -42 -28 -118 -67 -118 -61 0 3 -9 -3 -19 -12 -53 -48 -71 -55 -120 -45
-38 8 -43 22 -34 90 6 47 34 82 65 82 10 0 26 4 36 9 83 41 153 76 182 92 19
10 82 42 140 70 58 28 134 72 170 97 67 47 171 108 203 118 9 4 17 10 17 14 0
5 24 27 53 50 60 48 266 236 362 331 17 16 34 27 37 24 3 -4 9 4 13 17 4 13
21 34 36 47 16 13 29 29 29 35 0 6 19 36 41 66 23 30 45 65 50 78 10 27 68
114 82 123 5 3 8 8 6 10 -1 2 19 36 43 74 63 97 91 160 83 184 -12 39 -31 30
-121 -56 -19 -18 -47 -40 -62 -48 -15 -9 -45 -29 -67 -45 -52 -39 -206 -130
-270 -160 -27 -13 -67 -34 -88 -48 -22 -13 -45 -21 -53 -18 -19 7 -18 40 2 57
9 7 20 24 25 37 6 15 15 22 24 18 8 -3 15 -1 15 4 0 6 -7 10 -16 10 -8 0 -12
5 -9 11 4 6 14 8 24 4 12 -5 13 -3 4 6 -16 16 -47 3 -39 -16 8 -21 -7 -19 -27
3 -19 21 -23 52 -6 52 5 0 8 4 4 9 -3 5 25 24 62 43 38 18 70 35 73 38 3 3 30
18 60 33 110 55 303 180 364 236 54 49 151 148 163 167 48 76 93 158 93 170 0
9 4 13 8 10 5 -3 9 0 10 7 1 7 11 53 21 102 11 50 20 104 21 122 0 27 3 30 23
26 33 -9 49 -25 43 -45 -8 -32 13 -280 30 -343 8 -33 17 -67 19 -75 9 -43 40
-141 61 -190 12 -30 37 -91 54 -135 18 -44 47 -110 66 -146 18 -37 31 -69 28
-71 -2 -3 5 -13 16 -23 22 -20 27 -45 9 -45 -6 0 -9 7 -6 15 4 8 2 17 -3 20
-6 4 -10 -8 -10 -25 0 -27 3 -30 20 -25 15 5 23 -2 39 -33 11 -21 22 -58 24
-81 2 -23 12 -50 22 -59 10 -10 14 -11 10 -3 -4 7 -7 35 -6 62 0 38 -4 53 -21
69 -13 11 -16 20 -9 20 7 0 11 6 9 13 -3 6 -10 12 -15 12 -6 0 -15 4 -20 9 -5
5 -3 6 5 2 18 -11 15 2 -10 37 -13 18 -23 34 -24 37 -1 11 -29 66 -39 80 -7 8
-23 42 -36 75 -12 33 -27 64 -31 70 -4 5 -8 14 -8 21 0 6 -8 29 -17 50 -9 22
-18 44 -19 49 -2 6 -14 42 -27 80 -30 86 -63 198 -60 207 1 3 -4 38 -13 78 -8
40 -15 127 -16 194 0 72 -4 113 -9 101 -8 -21 -13 -7 -10 27 1 10 -3 27 -9 39
-8 15 -9 19 -1 15 6 -4 11 -2 11 3 0 6 -4 11 -9 11 -5 0 -12 8 -14 18 -3 9 -5
-9 -6 -40z m-781 -1571 c0 -2 -12 -14 -27 -28 l-28 -24 24 28 c23 25 31 32 31
24z m-600 -707 c0 -5 -6 -10 -13 -10 -7 0 -18 -5 -25 -12 -13 -13 -84 -39 -90
-33 -2 2 7 9 20 16 12 7 37 21 53 30 35 20 55 23 55 9z"/>
<path d="M1702 1298 c-17 -17 -15 -33 3 -18 12 10 15 10 15 0 0 -8 3 -11 6 -7
3 3 2 13 -3 21 -7 13 -12 13 -21 4z"/>
<path d="M1626 1193 c-14 -15 -23 -30 -21 -34 3 -4 -2 -12 -10 -19 -8 -7 -15
-19 -15 -28 0 -12 5 -10 24 7 14 13 22 29 20 35 -6 15 33 52 44 42 4 -4 -2
-15 -14 -25 -11 -9 -19 -22 -17 -28 3 -7 -8 -24 -23 -38 -17 -16 -22 -25 -12
-25 8 0 27 14 43 30 16 17 25 30 21 30 -5 0 -1 11 8 25 15 23 15 27 2 40 -19
20 -21 19 -50 -12z"/>
<path d="M1519 1095 c-29 -16 -63 -61 -55 -74 3 -5 -4 -22 -16 -37 -22 -28
-21 -28 16 4 21 18 41 30 45 27 3 -4 -2 -12 -12 -19 -27 -20 -20 -29 8 -10 14
9 23 20 20 24 -2 4 4 18 15 30 21 25 24 38 12 57 -5 8 -14 8 -33 -2z m31 -14
c0 -12 -58 -61 -73 -61 -6 0 4 16 23 35 34 35 50 43 50 26z"/>
<path d="M1356 904 c-25 -25 -46 -51 -46 -57 0 -6 22 10 48 36 26 26 52 47 57
47 5 0 -13 -22 -40 -50 -29 -29 -43 -50 -34 -50 13 0 65 48 82 77 8 13 -1 43
-13 43 -5 0 -29 -21 -54 -46z"/>
<path d="M1249 819 c-20 -20 -20 -21 -2 -34 30 -22 76 13 53 40 -17 20 -26 19
-51 -6z m31 -14 c-7 -8 -17 -15 -23 -15 -5 0 -2 9 8 20 21 23 35 19 15 -5z"/>
<path d="M1128 740 c-99 -38 -154 -110 -83 -110 13 0 43 15 67 33 24 18 55 38
71 44 24 11 26 15 15 33 -15 23 -10 23 -70 0z m62 -10 c0 -5 -7 -10 -16 -10
-8 0 -12 5 -9 10 3 6 10 10 16 10 5 0 9 -4 9 -10z m-50 -15 c0 -7 -92 -75
-102 -75 -18 0 -3 19 37 49 36 27 65 39 65 26z"/>
</g>
</svg>
