<?xml version="1.0" standalone="no"?>
<!DOCTYPE svg PUBLIC "-//W3C//DTD SVG 20010904//EN"
 "http://www.w3.org/TR/2001/REC-SVG-20010904/DTD/svg10.dtd">
<svg version="1.0" xmlns="http://www.w3.org/2000/svg"
 width="300.000000pt" height="91.000000pt" viewBox="0 0 300.000000 91.000000"
 preserveAspectRatio="xMidYMid meet">
<metadata>
Created by potrace 1.10, written by Peter Selinger 2001-2011
</metadata>
<g transform="translate(0.000000,91.000000) scale(0.100000,-0.100000)"
fill="#eceff1" stroke="none">
<path d="M1466 868 c5 -7 21 -31 36 -52 30 -42 58 -122 58 -168 l0 -28 -145 0
-145 0 0 -26 c0 -14 4 -23 10 -19 6 3 10 1 10 -4 0 -7 45 -10 133 -9 l132 2
-125 6 -125 6 127 2 127 2 3 -62 c2 -35 8 -63 13 -63 17 0 18 94 2 119 -11 16
-12 27 -5 40 19 34 3 131 -31 186 -17 27 -27 50 -23 50 31 -1 82 -110 82 -176
0 -27 5 -55 12 -62 8 -8 8 -15 0 -24 -13 -16 -12 -3 -13 -165 0 -128 -1 -136
-16 -115 -20 29 -29 28 -70 -8 -19 -17 -39 -28 -44 -24 -6 4 5 19 25 36 35 29
76 94 76 120 0 7 -22 34 -49 61 -38 36 -56 47 -81 47 -100 0 -169 -104 -126
-189 31 -58 114 -111 177 -111 19 0 70 39 53 40 -6 0 -17 -7 -24 -15 -7 -8
-16 -15 -20 -15 -5 0 8 16 27 35 19 19 36 35 38 35 1 0 0 -10 -2 -23 -3 -18 4
-27 38 -45 23 -12 43 -21 43 -20 1 2 -1 75 -4 163 l-5 160 -5 -145 -6 -145 -2
158 c-2 157 -2 157 21 157 18 0 19 -2 7 -10 -12 -8 -9 -10 13 -10 22 0 27 4
27 24 0 24 -16 36 -51 36 -14 0 -19 7 -18 28 0 24 1 25 9 7 7 -17 9 -15 9 13
1 17 -4 32 -10 32 -5 0 -9 8 -8 18 1 9 0 20 -1 25 -1 4 -3 10 -4 15 -4 18 -40
79 -59 100 -23 25 -105 34 -91 10z m-26 -362 c0 -2 -17 -15 -37 -27 -21 -13
-43 -30 -49 -38 -7 -9 -13 -10 -18 -3 -10 16 52 72 80 72 13 0 24 -2 24 -4z
m86 -47 c28 -23 16 -60 -35 -110 -51 -52 -86 -62 -115 -33 -62 61 10 173 102
160 19 -3 40 -10 48 -17z m-191 -39 c3 -5 1 -10 -4 -10 -6 0 -11 5 -11 10 0 6
2 10 4 10 3 0 8 -4 11 -10z"/>
<path d="M1413 450 c-17 -10 -37 -28 -42 -39 -18 -32 -12 -36 11 -6 12 15 35
36 52 46 17 10 27 19 21 19 -5 0 -24 -9 -42 -20z"/>
<path d="M1723 769 c8 -20 24 -37 43 -45 20 -8 34 -23 38 -38 6 -25 42 -53 53
-42 4 3 2 16 -4 28 -6 13 -11 28 -12 33 -2 6 -7 16 -13 23 -6 6 -7 12 -4 12
15 0 -31 39 -57 49 -49 19 -57 15 -44 -20z"/>
<path d="M2590 796 c0 -17 34 -62 59 -77 17 -10 33 -29 37 -43 3 -13 15 -27
27 -30 29 -7 32 -1 13 28 -9 14 -16 33 -16 43 0 22 -28 57 -57 72 -21 10 -63
15 -63 7z"/>
<path d="M2800 795 c0 -19 32 -63 54 -73 14 -6 32 -24 40 -40 14 -28 43 -48
53 -38 3 2 -3 16 -12 30 -10 14 -14 26 -10 26 4 0 1 7 -6 17 -8 9 -12 17 -9
17 13 3 -30 46 -54 56 -30 11 -56 13 -56 5z"/>
<path d="M1992 682 l4 -62 -38 0 c-28 0 -38 -4 -38 -16 0 -23 25 -44 52 -44
23 0 23 0 20 -123 -3 -112 -1 -125 18 -150 21 -26 73 -47 119 -47 23 0 91 60
91 81 0 8 -73 59 -84 59 -2 0 -7 -18 -11 -39 -7 -42 -27 -66 -47 -58 -10 3
-12 38 -10 141 l3 136 90 0 89 0 -1 28 c0 24 -1 25 -9 7 -8 -19 -9 -19 -9 3
-1 21 -5 22 -91 22 l-90 0 1 28 1 27 8 -25 8 -25 1 27 c1 20 -9 35 -40 59
l-42 33 5 -62z m58 -88 c0 -11 20 -14 83 -16 l82 -2 -75 -5 -75 -6 -5 -130 -6
-130 -2 138 c-1 83 -6 137 -12 137 -5 0 -10 -8 -10 -17 -1 -13 -5 -10 -16 10
-12 22 -13 31 -3 43 13 16 39 2 39 -22z m-57 -21 c-7 -2 -19 -2 -25 0 -7 3 -2
5 12 5 14 0 19 -2 13 -5z m165 -263 c-7 -10 -14 -18 -15 -16 -6 6 9 36 18 36
5 0 4 -9 -3 -20z m17 -28 l-28 -27 24 31 c13 17 26 30 28 27 3 -2 -8 -16 -24
-31z"/>
<path d="M20 604 c0 -40 21 -44 220 -44 l191 0 -3 28 -3 27 -202 3 c-180 2
-203 1 -203 -14z m293 -31 c-45 -2 -122 -2 -170 0 -48 1 -11 3 82 3 94 0 133
-2 88 -3z"/>
<path d="M458 595 c2 -14 8 -22 13 -19 5 3 9 0 9 -5 0 -6 10 -11 23 -11 18 0
19 2 7 10 -13 8 -12 10 3 10 14 0 17 -9 17 -44 0 -25 -4 -48 -10 -51 -16 -10
-12 -38 5 -31 8 3 15 1 15 -4 0 -6 5 -10 11 -10 5 0 7 5 4 10 -9 15 38 31 47
16 5 -7 8 -7 8 3 0 18 99 9 111 -10 14 -22 10 -32 -8 -23 -38 16 -95 16 -138
-1 -47 -17 -95 -65 -95 -94 0 -26 28 -60 69 -80 43 -22 142 -24 163 -3 11 11
9 12 -7 6 -16 -5 -17 -4 -9 5 9 10 21 7 53 -13 22 -14 43 -26 46 -26 3 0 4 44
3 98 l-2 97 -6 -85 -7 -85 1 113 c0 109 -1 113 -27 140 -24 23 -36 27 -85 27
-31 0 -65 -2 -76 -5 -14 -4 -19 1 -22 23 l-3 27 107 -2 107 -2 -95 -6 -95 -6
113 -2 112 -2 -1 28 -1 27 -8 -25 -8 -25 -1 28 -1 27 -174 0 -173 0 5 -25z
m126 -96 c-8 -14 -24 -10 -24 6 0 9 6 12 15 9 8 -4 12 -10 9 -15z m144 -1 c7
-7 12 -17 12 -22 0 -6 -6 -4 -13 5 -7 9 -19 18 -27 22 -13 5 -13 6 1 6 8 1 20
-4 27 -11z m22 -138 c0 -69 0 -69 -27 -68 -16 1 -41 -2 -58 -5 -28 -7 -27 -6
4 6 35 13 71 50 71 72 0 7 -7 18 -15 25 -13 11 -13 14 2 26 10 7 19 14 21 14
1 0 2 -31 2 -70z m-61 19 c27 -10 30 -13 19 -27 -33 -40 -150 -66 -187 -43
-13 8 -13 12 0 27 40 49 104 65 168 43z m-12 -125 c-3 -3 -12 -4 -19 -1 -8 3
-5 6 6 6 11 1 17 -2 13 -5z"/>
<path d="M563 360 c-18 -11 -33 -25 -33 -32 0 -6 10 -3 23 9 12 11 31 25 42
31 11 6 16 12 10 12 -5 0 -25 -9 -42 -20z"/>
<path d="M857 595 c3 -13 9 -22 14 -19 5 3 9 0 9 -5 0 -7 60 -11 181 -11 l180
0 -3 28 -3 27 -191 3 -191 2 4 -25z m271 -22 c-43 -2 -113 -2 -155 0 -43 1 -8
3 77 3 85 0 120 -2 78 -3z"/>
<path d="M1720 605 c0 -33 26 -45 95 -45 l66 0 -3 28 c-3 27 -4 27 -80 30 -66
2 -78 0 -78 -13z m103 -32 c-13 -2 -33 -2 -45 0 -13 2 -3 4 22 4 25 0 35 -2
23 -4z"/>
<path d="M2560 594 c0 -14 4 -23 10 -19 6 3 10 1 10 -4 0 -7 38 -11 105 -11
94 0 105 2 105 18 0 35 -21 42 -127 42 l-103 0 0 -26z m158 -21 c-21 -2 -57
-2 -80 0 -24 2 -7 4 37 4 44 0 63 -2 43 -4z"/>
<path d="M2810 594 c0 -14 4 -23 10 -19 6 3 10 1 10 -4 0 -7 27 -11 70 -11 67
0 70 1 70 24 0 30 -16 36 -96 36 -62 0 -64 -1 -64 -26z m113 -21 c-13 -2 -35
-2 -50 0 -16 2 -5 4 22 4 28 0 40 -2 28 -4z"/>
<path d="M195 520 c-16 -11 -42 -34 -57 -52 l-27 -33 -1 27 c0 14 6 28 13 31
19 7 -7 30 -38 33 l-25 3 0 -228 0 -227 36 -18 c20 -9 37 -16 38 -14 1 2 0 59
-3 128 l-6 125 -6 -110 -5 -110 -2 132 c-1 73 -5 132 -10 130 -10 -3 -12 6
-12 64 0 45 2 50 15 39 16 -14 18 -13 83 42 19 16 44 28 60 28 25 -1 24 -3
-15 -21 -50 -24 -123 -100 -123 -128 0 -25 78 -96 124 -111 20 -6 48 -9 61 -6
35 9 86 55 101 93 17 39 19 65 4 43 -8 -11 -9 -9 -5 10 12 50 -85 150 -145
150 -14 0 -38 -9 -55 -20z m141 -65 c20 -30 13 -53 -30 -94 -42 -41 -111 -53
-151 -27 -32 21 -32 28 7 72 67 76 142 97 174 49z m17 -104 c-3 -11 -18 -31
-34 -45 -22 -20 -39 -26 -71 -25 -27 1 -34 3 -19 6 28 6 90 43 110 67 17 21
20 20 14 -3z m17 -42 c-11 -20 -67 -59 -85 -59 -5 0 9 11 31 25 23 14 44 32
48 40 3 8 8 15 11 15 3 0 1 -9 -5 -21z"/>
<path d="M209 436 c-25 -19 -49 -42 -53 -53 -4 -10 9 -3 31 19 21 20 52 44 68
52 17 9 23 16 15 16 -8 0 -36 -16 -61 -34z"/>
<path d="M993 523 c-18 -9 -33 -20 -33 -25 0 -4 -4 -8 -9 -8 -5 0 -7 9 -4 20
5 17 0 20 -26 20 l-32 0 3 -132 3 -132 33 -19 c34 -20 55 -16 34 5 -7 7 -12
39 -12 73 0 76 29 136 80 167 34 21 34 20 -7 -15 -43 -39 -68 -91 -60 -129 4
-20 4 -19 6 5 4 89 113 181 159 135 7 -7 12 -36 12 -64 0 -45 -5 -59 -36 -99
-19 -26 -34 -49 -32 -50 2 -2 20 -15 40 -29 34 -23 37 -23 51 -8 22 26 45 74
52 112 5 27 0 48 -22 90 -47 92 -121 122 -200 83z m-25 -48 c2 -2 -3 -14 -11
-27 -8 -12 -18 -36 -22 -53 -15 -64 -29 19 -16 93 1 3 44 -8 49 -13z m197
-144 c-4 -17 -11 -31 -16 -31 -5 0 -9 -7 -9 -15 0 -15 -21 -21 -33 -9 -3 3 9
26 26 50 34 49 42 50 32 5z m26 -24 c-7 -19 -21 -43 -33 -53 l-22 -19 21 31
c12 16 25 43 29 58 3 15 9 25 11 22 3 -3 0 -20 -6 -39z"/>
<path d="M1768 405 l3 -136 32 -19 c18 -11 34 -20 37 -20 3 0 5 65 5 145 0
113 -3 145 -13 145 -7 0 -10 5 -7 10 4 6 -7 10 -27 10 l-33 0 3 -135z m59 -82
c-2 -37 -3 -9 -3 62 0 72 1 102 3 68 2 -34 2 -93 0 -130z m-30 50 c-2 -16 -4
-5 -4 22 0 28 2 40 4 28 2 -13 2 -35 0 -50z m0 -65 c-3 -7 -5 -2 -5 12 0 14 2
19 5 13 2 -7 2 -19 0 -25z"/>
<path d="M2660 315 c0 -200 -2 -226 -16 -232 -18 -7 -47 23 -38 39 3 4 -1 15
-9 23 -13 13 -18 12 -41 -6 -33 -26 -22 -50 34 -79 53 -27 91 -25 124 5 l26
24 -2 218 -2 218 -6 -215 c-3 -118 -9 -221 -13 -227 -4 -7 -18 -18 -30 -24
-18 -10 -17 -7 6 14 l27 26 0 221 0 220 -30 0 -30 0 0 -225z m37 -197 c-3 -8
-6 -5 -6 6 -1 11 2 17 5 13 3 -3 4 -12 1 -19z"/>
<path d="M2850 406 l0 -134 36 -21 c19 -12 37 -21 40 -21 2 0 3 66 2 148 l-2
147 -6 -140 -6 -140 -2 148 -2 147 -30 0 -30 0 0 -134z m37 12 c-2 -13 -4 -5
-4 17 -1 22 1 32 4 23 2 -10 2 -28 0 -40z"/>
<path d="M1468 193 c7 -3 16 -2 19 1 4 3 -2 6 -13 5 -11 0 -14 -3 -6 -6z"/>
</g>
</svg>
